<svg xmlns="http://www.w3.org/2000/svg" xmlns:xlink="http://www.w3.org/1999/xlink" width="402" zoomAndPan="magnify" viewBox="0 0 301.5 100.499997" height="134" preserveAspectRatio="xMidYMid meet" version="1.0"><defs><g/><clipPath id="68ba7c9694"><path d="M 0.496094 0 L 300.503906 0 L 300.503906 100.003906 L 0.496094 100.003906 Z M 0.496094 0 " clip-rule="nonzero"/></clipPath><clipPath id="38dfdcc61f"><path d="M 41 32.027344 L 78 32.027344 L 78 81 L 41 81 Z M 41 32.027344 " clip-rule="nonzero"/></clipPath><clipPath id="bd66ed0646"><path d="M 9 32.027344 L 44 32.027344 L 44 81 L 9 81 Z M 9 32.027344 " clip-rule="nonzero"/></clipPath><clipPath id="6857421775"><path d="M 41 42 L 84.828125 42 L 84.828125 87.996094 L 41 87.996094 Z M 41 42 " clip-rule="nonzero"/></clipPath><clipPath id="48b24bac82"><path d="M 0.496094 40 L 44 40 L 44 87.996094 L 0.496094 87.996094 Z M 0.496094 40 " clip-rule="nonzero"/></clipPath><clipPath id="f9105e946e"><path d="M 22 0 L 63.78125 0 L 63.78125 50.746094 L 22 50.746094 Z M 22 0 " clip-rule="nonzero"/></clipPath></defs><g clip-path="url(#68ba7c9694)"><path fill="#ffffff" d="M 0.496094 0 L 300.503906 0 L 300.503906 100.003906 L 0.496094 100.003906 Z M 0.496094 0 " fill-opacity="1" fill-rule="nonzero"/></g><g clip-path="url(#38dfdcc61f)"><path fill="#592f22" d="M 42.597656 80.898438 C 42.328125 80.835938 42.097656 80.703125 41.910156 80.492188 C 41.675781 80.226562 41.675781 80.226562 41.644531 78.171875 C 41.632812 77.472656 41.625 76.207031 41.664062 75.574219 C 42.003906 70.359375 42.539062 58.996094 42.308594 55.078125 C 42.128906 52.011719 42.109375 48.902344 42.085938 45.894531 L 42.074219 44.605469 C 41.820312 39.53125 42.21875 39.199219 42.570312 38.90625 C 42.683594 38.816406 42.808594 38.75 42.945312 38.714844 C 44.046875 37.914062 48.992188 34.511719 54.738281 33.300781 C 60.519531 32.085938 67.25 32.027344 71.882812 33.144531 C 74.640625 33.8125 76.34375 34.835938 76.9375 36.179688 C 77.613281 37.699219 77.433594 41.441406 77.15625 45.816406 C 77.101562 46.667969 77.054688 47.40625 77.039062 47.914062 C 76.941406 50.8125 76.8125 55.101562 76.730469 58.070312 C 76.664062 60.371094 76.582031 65.085938 76.507812 69.644531 C 76.464844 72.230469 76.421875 74.710938 76.386719 76.546875 C 76.3125 80.144531 76.3125 80.144531 75.75 80.367188 C 75.503906 80.464844 75.214844 80.472656 74.875 80.390625 C 74.125 80.207031 72.976562 79.566406 71.550781 78.746094 C 71.007812 78.433594 70.386719 78.074219 70.191406 78 C 69.273438 77.65625 68.140625 77.320312 66.824219 77 C 63.34375 76.160156 59.554688 75.675781 58.042969 75.714844 C 55.152344 75.78125 53.710938 76.125 49.492188 77.738281 C 49.300781 77.8125 48.65625 78.210938 48.085938 78.5625 C 45.601562 80.109375 43.75 81.179688 42.597656 80.898438 Z M 43.796875 40.230469 C 43.738281 40.628906 43.65625 41.71875 43.796875 44.515625 C 43.800781 44.617188 43.804688 44.679688 43.804688 44.691406 L 43.8125 45.878906 C 43.832031 48.867188 43.855469 51.957031 44.03125 54.976562 C 44.265625 58.96875 43.726562 70.4375 43.386719 75.6875 C 43.339844 76.386719 43.363281 78.164062 43.390625 79.152344 C 44.347656 78.851562 46.277344 77.65625 47.175781 77.097656 C 48.0625 76.542969 48.542969 76.25 48.871094 76.125 C 53.273438 74.441406 54.894531 74.0625 57.996094 73.988281 C 59.65625 73.945312 63.5625 74.433594 67.226562 75.320312 C 68.609375 75.65625 69.808594 76.015625 70.796875 76.386719 C 71.109375 76.503906 71.589844 76.777344 72.410156 77.25 C 73.0625 77.625 73.953125 78.140625 74.613281 78.453125 C 74.65625 76.738281 74.71875 73.132812 74.777344 69.613281 C 74.855469 65.050781 74.933594 60.332031 75 58.023438 C 75.085938 55.054688 75.214844 50.757812 75.3125 47.855469 C 75.328125 47.320312 75.378906 46.574219 75.433594 45.707031 C 75.601562 43.0625 75.914062 38.136719 75.355469 36.878906 C 75.003906 36.085938 73.589844 35.335938 71.472656 34.824219 C 67.136719 33.773438 60.554688 33.839844 55.089844 34.992188 C 49.304688 36.207031 44.214844 39.917969 43.796875 40.230469 Z M 43.796875 40.230469 " fill-opacity="1" fill-rule="nonzero"/></g><g clip-path="url(#bd66ed0646)"><path fill="#592f22" d="M 10.761719 80.40625 C 10.316406 80.296875 10.015625 79.925781 10.011719 79.484375 C 10.003906 77.777344 9.832031 73.160156 9.664062 68.695312 C 9.519531 64.894531 9.371094 60.96875 9.320312 58.691406 C 9.277344 56.761719 9.316406 54.882812 9.355469 53.066406 C 9.394531 51.195312 9.433594 49.425781 9.359375 47.960938 C 9.339844 47.546875 8.867188 37.726562 9.347656 35.324219 C 9.476562 34.675781 10.121094 34.292969 11.800781 33.863281 C 13.039062 33.546875 14.683594 33.269531 16.425781 33.078125 C 19.074219 32.792969 24.304688 32.46875 29.585938 33.496094 C 29.9375 33.566406 30.300781 33.644531 30.667969 33.734375 C 33.863281 34.507812 36.9375 35.898438 38.953125 36.925781 C 42.992188 38.988281 43.035156 39.425781 43.070312 39.742188 C 43.4375 43.359375 43.816406 50.816406 43.847656 55.085938 C 43.882812 59.910156 43.40625 73.074219 43.308594 75.664062 C 43.285156 76.285156 43.3125 77.769531 43.332031 78.753906 C 43.355469 80.226562 43.355469 80.226562 43.132812 80.488281 C 42.921875 80.734375 42.4375 81.125 41.582031 80.917969 C 40.9375 80.761719 40.222656 80.308594 39.316406 79.734375 C 38.246094 79.0625 36.921875 78.222656 35.59375 77.871094 C 35.144531 77.753906 34.722656 77.644531 34.324219 77.550781 C 30.585938 76.644531 28.988281 76.65625 26.570312 76.679688 L 26.050781 76.683594 C 22.714844 76.703125 17.914062 78.328125 14.738281 79.402344 C 12.160156 80.269531 11.320312 80.539062 10.761719 80.40625 Z M 10.996094 35.921875 C 10.730469 37.910156 10.898438 44.050781 11.085938 47.875 C 11.160156 49.398438 11.121094 51.195312 11.078125 53.097656 C 11.042969 54.898438 11 56.757812 11.042969 58.648438 C 11.097656 60.910156 11.246094 64.832031 11.386719 68.628906 C 11.539062 72.636719 11.683594 76.457031 11.726562 78.5625 C 12.367188 78.378906 13.3125 78.058594 14.1875 77.761719 C 17.46875 76.652344 22.425781 74.976562 26.039062 74.953125 L 26.554688 74.949219 C 29.265625 74.925781 31.136719 74.90625 36.035156 76.199219 C 37.617188 76.617188 39.070312 77.535156 40.238281 78.273438 C 40.75 78.59375 41.238281 78.90625 41.613281 79.085938 C 41.613281 78.988281 41.609375 78.882812 41.605469 78.78125 C 41.585938 77.71875 41.5625 76.265625 41.585938 75.597656 C 41.679688 73.011719 42.160156 59.882812 42.121094 55.097656 C 42.09375 51.011719 41.742188 43.988281 41.390625 40.292969 C 40.242188 39.542969 35.320312 36.628906 30.261719 35.40625 C 29.921875 35.324219 29.585938 35.25 29.257812 35.1875 C 21.191406 33.621094 12.507812 35.179688 10.996094 35.925781 Z M 10.996094 35.921875 " fill-opacity="1" fill-rule="nonzero"/></g><path fill="#592f22" d="M 42.273438 80.910156 C 42.015625 80.847656 41.820312 80.695312 41.707031 80.367188 C 41.660156 80.226562 41.648438 80.085938 41.671875 79.941406 C 41.699219 79.792969 41.757812 79.664062 41.847656 79.550781 C 41.941406 79.433594 42.054688 79.347656 42.191406 79.289062 C 42.328125 79.234375 42.46875 79.214844 42.613281 79.230469 C 43.25 79.191406 47.09375 78.660156 48.765625 78.429688 C 49.328125 78.351562 49.785156 78.289062 50.054688 78.253906 L 50.339844 78.214844 C 55.492188 77.523438 56.566406 77.378906 61.152344 77.695312 C 65.132812 77.972656 70.121094 79.746094 74.480469 81.382812 C 74.8125 81.507812 75.304688 81.703125 75.839844 81.917969 C 76.472656 82.175781 77.480469 82.578125 78.15625 82.820312 C 78.226562 82.175781 78.265625 81.230469 78.28125 80.742188 C 78.304688 80.195312 78.320312 79.878906 78.34375 79.6875 C 78.5625 78.105469 78.601562 76.683594 78.636719 75.179688 C 78.65625 74.40625 78.679688 73.609375 78.722656 72.761719 C 78.914062 69.234375 78.933594 65.824219 78.949219 62.527344 C 78.976562 58.148438 79 53.613281 79.4375 48.867188 C 79.511719 48.042969 79.632812 47.222656 79.75 46.429688 C 79.988281 44.835938 80.210938 43.332031 79.945312 42.4375 C 79.804688 41.972656 78.558594 42.039062 77.734375 42.082031 C 77.457031 42.097656 77.195312 42.109375 76.957031 42.113281 C 76.71875 42.113281 76.515625 42.03125 76.34375 41.867188 C 76.175781 41.699219 76.089844 41.496094 76.085938 41.257812 C 76.085938 41.019531 76.167969 40.816406 76.335938 40.644531 C 76.5 40.476562 76.703125 40.390625 76.941406 40.386719 C 77.15625 40.386719 77.390625 40.371094 77.640625 40.359375 C 79.003906 40.285156 81.070312 40.171875 81.597656 41.945312 C 81.972656 43.207031 81.722656 44.894531 81.457031 46.683594 C 81.34375 47.453125 81.226562 48.246094 81.152344 49.023438 C 80.722656 53.699219 80.699219 57.992188 80.675781 62.539062 C 80.65625 65.855469 80.636719 69.289062 80.445312 72.855469 C 80.398438 73.679688 80.378906 74.464844 80.359375 75.222656 C 80.320312 76.777344 80.28125 78.242188 80.050781 79.921875 C 80.035156 80.039062 80.019531 80.449219 80.003906 80.8125 C 79.910156 83.136719 79.8125 83.988281 79.429688 84.433594 C 78.929688 85.019531 78.578125 84.878906 75.195312 83.519531 C 74.671875 83.308594 74.195312 83.121094 73.871094 83 C 70.585938 81.765625 65.089844 79.699219 61.027344 79.417969 C 56.617188 79.113281 55.695312 79.238281 50.566406 79.925781 L 50.285156 79.964844 C 50.015625 80 49.558594 80.0625 49 80.140625 C 47.847656 80.300781 46.261719 80.519531 44.957031 80.6875 C 44.300781 80.773438 43.71875 80.847656 43.296875 80.894531 C 42.902344 80.941406 42.550781 80.980469 42.273438 80.910156 Z M 43.164062 79.507812 C 43.242188 79.59375 43.300781 79.695312 43.335938 79.804688 C 43.300781 79.695312 43.238281 79.59375 43.160156 79.507812 Z M 43.164062 79.507812 " fill-opacity="1" fill-rule="nonzero"/><g clip-path="url(#6857421775)"><path fill="#592f22" d="M 42.59375 86.601562 C 42.46875 86.570312 42.347656 86.527344 42.230469 86.46875 C 41.902344 86.296875 41.703125 85.984375 41.699219 85.632812 C 41.695312 85.277344 41.855469 85.015625 42.175781 84.855469 C 42.496094 84.695312 42.800781 84.722656 43.085938 84.941406 C 43.324219 84.96875 43.839844 84.945312 44.152344 84.738281 C 44.417969 84.558594 44.894531 83.660156 45.179688 83.121094 C 45.804688 81.929688 46.300781 80.992188 47.195312 80.984375 C 48.53125 80.972656 49.875 81.121094 51.136719 81.273438 C 51.925781 81.367188 52.8125 81.175781 53.667969 80.988281 L 53.832031 80.953125 C 54.324219 80.84375 54.867188 80.9375 55.300781 81.011719 C 55.40625 81.03125 55.507812 81.050781 55.601562 81.0625 C 56.226562 81.148438 56.871094 81.148438 57.550781 81.152344 C 58.113281 81.152344 58.695312 81.15625 59.28125 81.207031 C 60.0625 81.277344 60.804688 81.503906 61.523438 81.71875 C 62.167969 81.914062 62.773438 82.097656 63.367188 82.160156 C 63.851562 82.210938 64.339844 82.242188 64.855469 82.273438 C 66.230469 82.359375 67.652344 82.449219 69.046875 82.972656 C 69.523438 83.152344 70.019531 83.359375 70.5 83.558594 C 71.585938 84.011719 72.710938 84.480469 73.726562 84.683594 C 74.0625 84.75 74.441406 84.757812 74.847656 84.761719 C 75.40625 84.769531 75.988281 84.78125 76.578125 84.945312 C 77.144531 85.101562 77.734375 85.15625 78.359375 85.210938 C 78.753906 85.246094 79.164062 85.28125 79.578125 85.347656 C 79.761719 85.375 79.9375 85.414062 80.105469 85.457031 C 80.464844 85.539062 80.625 85.570312 80.757812 85.519531 C 80.953125 85.441406 81.15625 85.425781 81.363281 85.46875 C 81.386719 84.945312 81.320312 84.199219 81.285156 83.8125 C 81.257812 83.480469 81.230469 83.191406 81.230469 82.96875 C 81.222656 82.140625 81.371094 81.34375 81.511719 80.574219 C 81.609375 80.046875 81.703125 79.542969 81.746094 79.042969 C 81.820312 78.140625 81.789062 77.246094 81.75 76.296875 C 81.730469 75.8125 81.714844 75.324219 81.707031 74.835938 C 81.695312 73.34375 81.8125 71.867188 81.925781 70.441406 C 82 69.480469 82.078125 68.488281 82.117188 67.511719 C 82.167969 66.167969 82.136719 64.792969 82.105469 63.453125 C 82.078125 62.140625 82.046875 60.78125 82.09375 59.433594 C 82.132812 58.269531 82.238281 57.101562 82.339844 55.972656 C 82.523438 53.949219 82.695312 52.039062 82.527344 50.109375 C 82.421875 48.898438 82.578125 47.707031 82.726562 46.554688 C 82.800781 45.972656 82.875 45.425781 82.914062 44.878906 C 82.917969 44.796875 82.941406 44.648438 82.976562 44.460938 C 82.984375 44.398438 83 44.3125 83.015625 44.214844 C 82.761719 44.242188 82.503906 44.277344 82.375 44.292969 C 82.105469 44.328125 82.003906 44.34375 81.910156 44.34375 L 81.878906 44.34375 C 81.523438 44.359375 80.582031 44.40625 80.363281 43.589844 C 80.265625 43.21875 80.371094 42.914062 80.675781 42.683594 C 80.984375 42.449219 81.304688 42.429688 81.636719 42.625 C 81.699219 42.625 81.765625 42.621094 81.796875 42.617188 L 81.898438 42.613281 C 81.917969 42.613281 82.019531 42.597656 82.148438 42.582031 C 83.566406 42.390625 84.136719 42.363281 84.523438 42.800781 C 84.914062 43.242188 84.832031 43.859375 84.675781 44.757812 C 84.65625 44.863281 84.640625 44.953125 84.632812 45.003906 C 84.589844 45.59375 84.511719 46.195312 84.4375 46.777344 C 84.292969 47.886719 84.15625 48.933594 84.246094 49.957031 C 84.425781 52.042969 84.238281 54.117188 84.058594 56.125 C 83.957031 57.230469 83.855469 58.375 83.816406 59.488281 C 83.773438 60.789062 83.800781 62.125 83.832031 63.414062 C 83.859375 64.773438 83.890625 66.179688 83.839844 67.578125 C 83.800781 68.585938 83.722656 69.597656 83.644531 70.574219 C 83.535156 71.964844 83.421875 73.402344 83.429688 74.820312 C 83.433594 75.292969 83.453125 75.761719 83.472656 76.230469 C 83.507812 77.1875 83.546875 78.175781 83.460938 79.1875 C 83.414062 79.769531 83.308594 80.335938 83.207031 80.886719 C 83.074219 81.609375 82.949219 82.289062 82.953125 82.953125 C 82.953125 83.105469 82.976562 83.375 83 83.660156 C 83.132812 85.171875 83.191406 86.378906 82.617188 87.050781 C 82.132812 87.617188 81.433594 87.328125 81.171875 87.214844 L 81.140625 87.203125 C 80.59375 87.34375 80.109375 87.226562 79.707031 87.132812 C 79.582031 87.101562 79.449219 87.070312 79.308594 87.046875 C 78.953125 86.992188 78.585938 86.960938 78.203125 86.925781 C 77.527344 86.867188 76.828125 86.808594 76.109375 86.605469 C 75.734375 86.5 75.289062 86.492188 74.816406 86.484375 C 74.351562 86.476562 73.875 86.472656 73.382812 86.371094 C 72.199219 86.132812 70.996094 85.632812 69.835938 85.148438 C 69.347656 84.945312 68.886719 84.753906 68.4375 84.585938 C 67.285156 84.152344 66.050781 84.074219 64.746094 83.992188 C 64.234375 83.960938 63.707031 83.929688 63.183594 83.871094 C 62.425781 83.792969 61.710938 83.574219 61.023438 83.367188 C 60.359375 83.164062 59.730469 82.976562 59.125 82.921875 C 58.613281 82.878906 58.09375 82.875 57.542969 82.875 C 56.835938 82.871094 56.105469 82.867188 55.367188 82.769531 C 55.257812 82.753906 55.132812 82.730469 55.003906 82.710938 C 54.75 82.667969 54.359375 82.597656 54.195312 82.632812 L 54.039062 82.667969 C 53.085938 82.875 52.011719 83.113281 50.933594 82.984375 C 49.792969 82.84375 48.582031 82.710938 47.414062 82.707031 C 47.222656 82.941406 46.917969 83.519531 46.707031 83.921875 C 46.210938 84.859375 45.742188 85.75 45.109375 86.171875 C 44.332031 86.695312 43.261719 86.761719 42.59375 86.601562 Z M 42.59375 86.601562 " fill-opacity="1" fill-rule="nonzero"/></g><g clip-path="url(#48b24bac82)"><path fill="#592f22" d="M 4.394531 87.996094 C 4.308594 87.972656 4.230469 87.9375 4.15625 87.890625 C 3.9375 87.761719 3.796875 87.574219 3.734375 87.328125 C 3.570312 86.640625 3.445312 84.53125 3.285156 81.625 C 3.21875 80.433594 3.164062 79.402344 3.121094 78.964844 C 2.976562 77.527344 2.367188 65.953125 2.230469 63.160156 C 2.164062 61.820312 2.070312 60.160156 1.964844 58.359375 C 1.824219 55.960938 1.667969 53.242188 1.550781 50.742188 C 1.511719 49.777344 1.246094 47.746094 1.019531 45.953125 C 0.851562 44.65625 0.695312 43.433594 0.636719 42.726562 C 0.554688 41.773438 1.550781 41.59375 3.207031 41.300781 C 4.273438 41.113281 5.449219 40.949219 6.058594 40.882812 C 6.296875 40.855469 6.511719 40.914062 6.703125 41.0625 C 6.890625 41.214844 7 41.410156 7.023438 41.648438 C 7.050781 41.890625 6.984375 42.105469 6.832031 42.289062 C 6.675781 42.476562 6.480469 42.582031 6.238281 42.601562 C 5.160156 42.714844 3.3125 43.011719 2.421875 43.214844 C 2.496094 43.894531 2.613281 44.796875 2.730469 45.734375 C 2.976562 47.648438 3.230469 49.628906 3.277344 50.664062 C 3.390625 53.152344 3.550781 55.867188 3.6875 58.261719 C 3.792969 60.066406 3.890625 61.730469 3.957031 63.074219 C 4.09375 65.859375 4.699219 77.386719 4.839844 78.796875 C 4.886719 79.269531 4.941406 80.316406 5.007812 81.527344 C 5.089844 82.996094 5.203125 85.042969 5.3125 86.179688 C 6 86.023438 7.195312 85.707031 8.867188 85.210938 C 9.203125 85.109375 9.925781 84.941406 10.839844 84.722656 C 12.460938 84.335938 14.683594 83.808594 16.097656 83.363281 C 17.90625 82.789062 24.304688 81.617188 25.777344 81.464844 C 26.441406 81.398438 28.175781 81.414062 30.015625 81.433594 C 31.5625 81.449219 33.484375 81.464844 33.917969 81.40625 C 35.179688 81.238281 36.523438 81.066406 37.859375 81.058594 C 38.53125 81.050781 39.03125 81.628906 39.78125 82.503906 C 40.535156 83.378906 41.667969 84.695312 42.632812 84.773438 C 42.871094 84.792969 43.070312 84.894531 43.222656 85.074219 C 43.378906 85.257812 43.449219 85.46875 43.429688 85.707031 C 43.410156 85.945312 43.308594 86.140625 43.121094 86.296875 C 42.9375 86.449219 42.726562 86.515625 42.488281 86.496094 C 40.832031 86.359375 39.46875 84.78125 38.472656 83.628906 C 38.21875 83.332031 37.882812 82.945312 37.699219 82.785156 C 36.519531 82.808594 35.300781 82.964844 34.152344 83.117188 C 33.628906 83.191406 32.234375 83.183594 30 83.160156 C 28.367188 83.144531 26.519531 83.128906 25.957031 83.1875 C 24.566406 83.332031 18.308594 84.472656 16.617188 85.011719 C 15.144531 85.476562 12.886719 86.011719 11.234375 86.40625 C 10.386719 86.609375 9.648438 86.78125 9.359375 86.867188 C 5.683594 87.957031 4.789062 88.09375 4.394531 87.996094 Z M 4.394531 87.996094 " fill-opacity="1" fill-rule="nonzero"/></g><path fill="#592f22" d="M 7.667969 83.417969 C 7.363281 83.34375 7.242188 83.207031 7.121094 83.070312 C 6.820312 82.726562 6.601562 82.480469 6.578125 71.765625 C 6.578125 71.460938 6.578125 71.242188 6.578125 71.136719 C 6.566406 69.488281 6.496094 68.0625 6.421875 66.546875 C 6.367188 65.460938 6.3125 64.339844 6.277344 63.109375 C 6.230469 61.390625 6.195312 59.769531 6.164062 58.199219 C 6.109375 55.316406 6.054688 52.59375 5.914062 49.738281 C 5.863281 48.710938 5.6875 46.003906 5.53125 43.613281 C 5.402344 41.613281 5.289062 39.886719 5.269531 39.40625 C 5.257812 39.152344 5.3125 38.527344 6.097656 38.167969 C 6.96875 37.769531 10.082031 37.734375 10.601562 38.226562 C 10.730469 38.347656 10.8125 38.496094 10.851562 38.667969 C 10.890625 38.839844 10.878906 39.007812 10.816406 39.171875 C 10.660156 39.535156 10.386719 39.71875 9.996094 39.722656 C 9.894531 39.722656 9.800781 39.707031 9.707031 39.675781 C 9.09375 39.585938 7.628906 39.53125 7.011719 39.671875 C 7.054688 40.40625 7.152344 41.917969 7.253906 43.5 C 7.410156 45.898438 7.585938 48.613281 7.636719 49.652344 C 7.78125 52.535156 7.835938 55.265625 7.894531 58.164062 C 7.925781 59.730469 7.957031 61.347656 8.003906 63.0625 C 8.039062 64.273438 8.09375 65.386719 8.148438 66.464844 C 8.222656 67.992188 8.292969 69.441406 8.308594 71.121094 C 8.308594 71.230469 8.308594 71.453125 8.308594 71.761719 C 8.324219 78.359375 8.421875 80.84375 8.503906 81.75 C 10.1875 81.671875 15.542969 80.398438 16.339844 80.085938 C 21.554688 78.03125 29.539062 77.546875 34.402344 78.132812 C 35.007812 78.207031 35.582031 78.285156 36.144531 78.367188 C 36.945312 78.476562 37.699219 78.585938 38.53125 78.667969 C 39.738281 78.785156 40.824219 78.976562 41.773438 79.238281 L 41.820312 79.25 L 41.832031 79.253906 C 42.0625 79.308594 42.238281 79.433594 42.363281 79.632812 C 42.488281 79.832031 42.523438 80.042969 42.476562 80.273438 C 42.425781 80.503906 42.304688 80.683594 42.109375 80.8125 C 41.914062 80.941406 41.703125 80.984375 41.472656 80.941406 C 41.449219 80.9375 41.398438 80.925781 41.316406 80.902344 C 40.46875 80.667969 39.472656 80.496094 38.363281 80.386719 C 37.492188 80.300781 36.6875 80.183594 35.902344 80.074219 C 35.351562 79.996094 34.792969 79.917969 34.195312 79.847656 C 29.476562 79.277344 21.746094 79.8125 16.972656 81.691406 C 16.410156 81.910156 14.164062 82.476562 12.253906 82.878906 C 9.375 83.484375 8.21875 83.550781 7.667969 83.417969 Z M 7.667969 83.417969 " fill-opacity="1" fill-rule="nonzero"/><g clip-path="url(#f9105e946e)"><path fill="#592f22" d="M 31.464844 2.0625 C 32.445312 2.515625 33.5 3.125 33.851562 4.222656 C 34.304688 5.574219 33.308594 6.753906 33.015625 8.015625 C 32.921875 8.328125 32.925781 8.636719 33.03125 8.945312 C 33.140625 9.25 33.324219 9.5 33.589844 9.6875 C 34.054688 9.988281 34.460938 10.351562 34.816406 10.773438 C 35.566406 11.835938 35.15625 13.164062 34.695312 14.25 C 34.441406 14.84375 33.464844 14.578125 33.71875 13.980469 C 34.003906 13.410156 34.171875 12.8125 34.222656 12.175781 C 34.199219 11.605469 33.949219 11.171875 33.464844 10.867188 C 32.679688 10.253906 31.972656 9.710938 31.9375 8.613281 C 31.890625 7.347656 32.8125 6.359375 32.933594 5.144531 C 33.054688 3.925781 31.863281 3.371094 30.953125 2.941406 C 30.363281 2.660156 30.875 1.789062 31.464844 2.0625 Z M 34.730469 2.535156 C 35.492188 2.988281 36.410156 3.5 36.78125 4.339844 C 37.257812 5.410156 36.371094 6.492188 36.101562 7.496094 C 35.957031 7.945312 35.9375 8.402344 36.046875 8.863281 C 36.15625 9.324219 36.375 9.722656 36.707031 10.0625 C 37.542969 10.964844 37.15625 12 36.753906 13.023438 C 36.511719 13.628906 37.492188 13.894531 37.734375 13.292969 C 38.144531 12.285156 38.53125 11.0625 37.96875 10.03125 C 37.710938 9.578125 37.167969 9.25 37.027344 8.722656 C 36.859375 8.089844 37.183594 7.402344 37.425781 6.839844 C 37.878906 5.796875 38.164062 4.746094 37.589844 3.683594 C 37.085938 2.78125 36.125 2.160156 35.246094 1.644531 C 35.121094 1.574219 34.992188 1.554688 34.855469 1.59375 C 34.71875 1.628906 34.613281 1.710938 34.542969 1.832031 C 34.472656 1.957031 34.453125 2.085938 34.492188 2.222656 C 34.527344 2.363281 34.609375 2.464844 34.730469 2.535156 Z M 40.550781 3.027344 C 41.339844 4.019531 40.425781 5.679688 39.898438 6.609375 C 39.371094 7.535156 38.855469 8.667969 39.746094 9.535156 C 40.117188 9.894531 40.648438 10.058594 40.824219 10.585938 C 40.910156 10.828125 40.925781 11.074219 40.867188 11.328125 C 40.8125 11.578125 40.695312 11.796875 40.515625 11.980469 C 40.066406 12.433594 40.777344 13.164062 41.238281 12.699219 C 41.429688 12.5 41.585938 12.277344 41.699219 12.023438 C 41.8125 11.773438 41.882812 11.511719 41.902344 11.234375 C 41.925781 10.960938 41.902344 10.6875 41.828125 10.421875 C 41.753906 10.15625 41.640625 9.910156 41.480469 9.683594 C 41.183594 9.273438 40.375 8.992188 40.273438 8.496094 C 40.128906 7.828125 40.886719 6.972656 41.175781 6.40625 C 41.703125 5.28125 42.277344 3.785156 41.535156 2.632812 C 40.921875 1.683594 39.800781 1.277344 39.046875 0.464844 C 38.582031 0.00390625 37.859375 0.71875 38.308594 1.199219 C 38.96875 1.90625 39.933594 2.289062 40.550781 3.027344 Z M 32.132812 26.425781 C 30.992188 26.242188 28.808594 25.886719 28.722656 24.394531 C 28.671875 23.628906 29.257812 23.105469 29.917969 22.84375 C 30.886719 22.523438 31.878906 22.292969 32.890625 22.148438 C 35.105469 21.699219 37.34375 21.386719 39.585938 21.160156 C 41.859375 20.917969 44.136719 20.800781 46.421875 20.800781 C 47.773438 20.800781 49.648438 21.214844 49.609375 22.90625 C 49.5625 24.78125 47.085938 25.574219 45.625 25.945312 C 43.585938 26.382812 41.527344 26.585938 39.441406 26.558594 C 38.71875 26.558594 37.980469 26.589844 37.25 26.582031 C 36.957031 26.582031 36.664062 26.617188 36.371094 26.617188 C 34.953125 26.75 33.539062 26.683594 32.132812 26.425781 Z M 37.066406 25.472656 L 36.800781 25.425781 C 36.546875 25.464844 36.300781 25.503906 36.050781 25.53125 L 36.539062 25.550781 L 36.628906 25.550781 Z M 41.152344 25.5 C 40.777344 25.4375 40.417969 25.335938 40.066406 25.195312 C 40.097656 25.3125 40.097656 25.425781 40.066406 25.542969 Z M 48.152344 22.15625 L 48.207031 22.210938 C 48.441406 22.449219 48.5625 22.730469 48.566406 23.0625 C 48.566406 23.0625 48.566406 23.019531 48.566406 22.996094 C 48.597656 22.824219 48.574219 22.664062 48.5 22.507812 C 48.421875 22.355469 48.304688 22.238281 48.152344 22.15625 Z M 42.5625 22.324219 L 44.96875 22.179688 C 45.230469 22.179688 45.390625 22.304688 45.457031 22.554688 C 45.457031 22.609375 45.457031 22.664062 45.457031 22.710938 L 46.429688 22.503906 L 46.183594 22.449219 C 45.773438 22.351562 45.378906 22.179688 44.964844 22.089844 C 44.527344 22.003906 44.089844 22.003906 43.648438 22.089844 C 43.292969 22.171875 42.929688 22.246094 42.5625 22.324219 Z M 39.132812 23.5625 L 39.671875 23.867188 L 40.101562 23.789062 C 40.832031 23.65625 41.558594 23.503906 42.289062 23.367188 Z M 37.578125 24.066406 C 37.265625 24.023438 36.953125 24.023438 36.644531 24.066406 C 36.957031 24.070312 37.265625 24.070312 37.578125 24.066406 Z M 33.894531 22.992188 C 34.664062 22.882812 35.433594 22.800781 36.210938 22.742188 L 36.511719 22.742188 C 36.859375 22.609375 37.210938 22.5 37.570312 22.414062 L 37.535156 22.414062 C 36.316406 22.574219 35.101562 22.765625 33.894531 22.992188 Z M 32.78125 25.007812 C 32.855469 25.039062 32.929688 25.066406 33.007812 25.089844 C 33.171875 25.132812 33.339844 25.167969 33.5 25.207031 C 33.375 25.121094 33.261719 25.023438 33.164062 24.914062 C 33.09375 24.953125 33.023438 24.976562 32.945312 24.984375 Z M 31.0625 24.519531 L 31.0625 24.496094 Z M 62.34375 45.570312 C 61.554688 46.28125 60.6875 46.882812 59.742188 47.371094 C 58.800781 47.890625 57.824219 48.34375 56.816406 48.726562 C 54.75 49.511719 52.617188 50.058594 50.425781 50.367188 C 45.820312 51.054688 41.140625 50.949219 36.511719 50.671875 C 33.875 50.519531 31.242188 50.285156 28.617188 49.96875 C 26.886719 49.761719 24.597656 49.691406 23.386719 48.226562 C 21.984375 46.527344 23.386719 44.320312 24.691406 43.058594 C 25.421875 42.355469 26.253906 41.804688 27.1875 41.402344 C 28.117188 41 29.089844 40.773438 30.101562 40.71875 C 29.109375 39.539062 28.230469 38.277344 27.472656 36.929688 C 25.847656 34.019531 24.839844 30.910156 24.449219 27.597656 C 24.277344 27.375 24.140625 27.128906 24.042969 26.863281 C 23.8125 26.25 24.789062 25.988281 25.019531 26.597656 C 25.371094 27.5 26.472656 27.828125 27.351562 27.992188 C 28.613281 28.183594 29.878906 28.296875 31.15625 28.328125 C 33.933594 28.480469 36.710938 28.449219 39.484375 28.242188 C 41.960938 28.058594 44.417969 27.734375 46.859375 27.265625 C 48.703125 26.910156 50.808594 26.589844 52.332031 25.394531 C 53.855469 24.199219 53.929688 22.171875 52.75 20.65625 C 51.398438 18.910156 49.09375 18.53125 47.011719 18.539062 C 44.585938 18.582031 42.171875 18.78125 39.773438 19.128906 C 37.269531 19.449219 34.78125 19.863281 32.300781 20.328125 C 31.125 20.546875 29.945312 20.777344 28.769531 21.019531 C 27.792969 21.179688 26.890625 21.53125 26.066406 22.078125 C 25.726562 22.300781 25.46875 22.59375 25.285156 22.957031 C 25.105469 23.320312 25.03125 23.703125 25.054688 24.109375 C 25.050781 24.445312 25.152344 24.742188 25.359375 25.007812 C 25.566406 25.269531 25.835938 25.4375 26.160156 25.511719 C 26.800781 25.628906 26.53125 26.605469 25.890625 26.488281 C 23.867188 26.128906 23.585938 23.355469 24.691406 21.980469 C 25.507812 21.003906 26.664062 20.511719 27.828125 20.207031 C 29.28125 19.820312 30.777344 19.582031 32.25 19.304688 C 35.039062 18.808594 37.835938 18.355469 40.652344 18.011719 C 43.355469 17.691406 46.207031 17.28125 48.910156 17.640625 C 51.128906 17.933594 53.261719 18.992188 54.214844 21.132812 C 54.660156 22.074219 54.734375 23.042969 54.4375 24.039062 C 55.074219 23.523438 55.796875 23.25 56.617188 23.222656 C 57.195312 23.203125 57.769531 23.253906 58.335938 23.378906 C 58.871094 23.441406 59.386719 23.578125 59.882812 23.789062 C 61.402344 24.582031 61.652344 27.035156 61.769531 28.542969 C 61.945312 30.417969 61.660156 32.21875 60.917969 33.953125 C 59.5625 36.925781 56.316406 39.035156 53.027344 38.28125 C 52.953125 38.265625 52.886719 38.234375 52.824219 38.1875 C 52.507812 39.667969 52.0625 41.292969 51.019531 42.378906 C 49.808594 43.640625 47.863281 44.328125 46.199219 44.664062 C 44.269531 44.992188 42.332031 45.042969 40.390625 44.816406 C 38.429688 44.679688 36.492188 44.410156 34.570312 44.011719 C 34.335938 43.960938 34.109375 43.894531 33.886719 43.8125 C 33.890625 43.949219 33.84375 44.070312 33.75 44.171875 C 33.65625 44.273438 33.542969 44.332031 33.40625 44.34375 C 32.847656 44.367188 32.34375 44.539062 31.886719 44.863281 C 31.523438 45.183594 32.0625 45.394531 32.375 45.511719 C 33.285156 45.835938 34.21875 46.066406 35.171875 46.207031 C 37.175781 46.53125 39.191406 46.632812 41.214844 46.507812 C 43.253906 46.382812 45.28125 46.140625 47.296875 45.78125 C 48.242188 45.621094 49.199219 45.464844 50.128906 45.214844 C 50.601562 45.140625 51.039062 44.980469 51.449219 44.730469 C 52.027344 44.226562 50.996094 43.984375 50.597656 43.902344 C 49.960938 43.769531 50.230469 42.792969 50.867188 42.921875 C 51.738281 43.109375 52.859375 43.640625 52.640625 44.726562 C 52.4375 45.730469 51.03125 46.03125 50.199219 46.242188 C 48.09375 46.738281 45.964844 47.089844 43.8125 47.296875 C 41.640625 47.566406 39.464844 47.625 37.285156 47.476562 C 36.246094 47.394531 35.21875 47.246094 34.199219 47.027344 C 33.296875 46.832031 32.148438 46.660156 31.363281 46.101562 C 30.777344 45.6875 30.441406 44.9375 30.957031 44.296875 C 31.519531 43.738281 32.195312 43.421875 32.980469 43.34375 C 32.070312 42.785156 31.269531 42.097656 30.582031 41.277344 C 30.574219 41.402344 30.523438 41.507812 30.433594 41.59375 C 30.34375 41.679688 30.234375 41.722656 30.109375 41.730469 C 29.066406 41.789062 28.082031 42.0625 27.152344 42.539062 C 26.222656 43.019531 25.429688 43.664062 24.773438 44.480469 C 24.15625 45.25 23.421875 46.433594 24.03125 47.410156 C 24.484375 48.117188 25.386719 48.414062 26.144531 48.597656 C 27.105469 48.796875 28.074219 48.9375 29.054688 49.019531 C 30.21875 49.160156 31.390625 49.277344 32.558594 49.378906 C 34.828125 49.582031 37.101562 49.734375 39.375 49.832031 C 43.332031 49.972656 47.339844 49.949219 51.25 49.234375 C 53.125 48.894531 54.949219 48.371094 56.71875 47.660156 C 57.613281 47.3125 58.480469 46.898438 59.320312 46.429688 C 60.160156 46 60.933594 45.472656 61.636719 44.847656 C 63.386719 43.140625 60.902344 41.691406 59.425781 41.148438 C 57.324219 40.410156 55.167969 40.140625 52.953125 40.339844 C 52.300781 40.398438 52.304688 39.382812 52.953125 39.324219 C 55.738281 39.046875 58.398438 39.496094 60.933594 40.679688 C 61.929688 41.109375 62.65625 41.820312 63.117188 42.800781 C 63.28125 43.296875 63.292969 43.796875 63.152344 44.300781 C 63.011719 44.804688 62.742188 45.230469 62.34375 45.570312 Z M 53.363281 35.066406 C 54.398438 35.5625 55.617188 35.171875 56.464844 34.410156 C 57.445312 33.507812 58.007812 32.214844 58.433594 30.976562 C 58.855469 29.734375 59.140625 28.144531 57.980469 27.167969 C 57.746094 26.972656 57.484375 26.835938 57.191406 26.753906 C 56.898438 26.671875 56.605469 26.652344 56.304688 26.695312 C 56.003906 26.738281 55.722656 26.839844 55.46875 27 C 55.210938 27.160156 54.996094 27.367188 54.824219 27.617188 C 54.765625 27.6875 54.695312 27.742188 54.609375 27.777344 C 54.523438 27.8125 54.433594 27.824219 54.339844 27.816406 C 54.25 27.804688 54.164062 27.773438 54.089844 27.722656 C 54.011719 27.667969 53.953125 27.601562 53.910156 27.519531 C 53.707031 30.027344 53.65625 32.558594 53.363281 35.066406 Z M 53.226562 36.101562 C 53.167969 36.507812 53.09375 36.910156 53.015625 37.308594 C 53.117188 37.28125 53.214844 37.28125 53.3125 37.308594 C 54.160156 37.480469 55 37.453125 55.835938 37.238281 C 56.675781 37.019531 57.421875 36.628906 58.082031 36.070312 C 58.777344 35.480469 59.351562 34.785156 59.796875 33.984375 C 60.242188 33.1875 60.535156 32.335938 60.671875 31.429688 C 61 29.628906 60.933594 27.285156 60.128906 25.570312 C 59.964844 25.101562 59.648438 24.78125 59.183594 24.605469 C 58.632812 24.4375 58.070312 24.328125 57.496094 24.277344 C 56.558594 24.171875 55.582031 24.277344 54.910156 25.011719 C 54.820312 25.125 54.703125 25.179688 54.558594 25.179688 C 54.414062 25.179688 54.296875 25.125 54.207031 25.011719 C 54.105469 25.71875 54.023438 26.429688 53.960938 27.148438 L 53.960938 27.109375 C 54.15625 26.816406 54.390625 26.5625 54.667969 26.34375 C 54.945312 26.128906 55.25 25.964844 55.585938 25.847656 C 55.917969 25.734375 56.257812 25.675781 56.609375 25.671875 C 56.960938 25.667969 57.304688 25.722656 57.636719 25.832031 C 58.253906 26.058594 58.757812 26.4375 59.152344 26.960938 C 59.546875 27.484375 59.765625 28.074219 59.816406 28.726562 C 59.9375 30.152344 59.332031 31.640625 58.730469 32.902344 C 58.171875 34.074219 57.378906 35.226562 56.167969 35.828125 C 55.226562 36.339844 54.246094 36.429688 53.226562 36.101562 Z M 31.925781 41.25 C 32.484375 41.878906 33.140625 42.375 33.902344 42.734375 C 34.738281 43.03125 35.597656 43.222656 36.480469 43.316406 C 40.035156 43.871094 43.996094 44.460938 47.476562 43.261719 C 48.332031 42.984375 49.121094 42.585938 49.851562 42.066406 C 50.515625 41.53125 50.976562 40.859375 51.238281 40.046875 C 51.816406 38.375 52.191406 36.660156 52.363281 34.898438 C 52.699219 31.976562 52.722656 29.039062 53.039062 26.113281 C 52.933594 26.203125 52.824219 26.289062 52.707031 26.367188 C 50.878906 27.675781 48.429688 28.019531 46.277344 28.402344 C 43.457031 28.90625 40.617188 29.222656 37.757812 29.363281 C 34.941406 29.5 32.128906 29.453125 29.316406 29.222656 C 28.140625 29.125 26.703125 29.046875 25.589844 28.503906 C 26.109375 31.722656 27.234375 34.710938 28.96875 37.472656 C 29.824219 38.835938 30.808594 40.09375 31.925781 41.25 Z M 31.925781 41.25 " fill-opacity="1" fill-rule="nonzero"/></g><g fill="#592f22" fill-opacity="1"><g transform="translate(100.830826, 79.702203)"><g><path d="M 21.609375 0 L 1.4375 0 L 1.4375 -3.4375 L 2.84375 -3.5625 C 3.664062 -3.644531 4.078125 -4.039062 4.078125 -4.75 L 4.078125 -24.5 L 1.65625 -24.625 L 1.65625 -28.234375 L 21.109375 -28.234375 L 21.109375 -21.1875 L 16.78125 -20.890625 L 16.78125 -22.59375 C 16.78125 -23.070312 16.707031 -23.410156 16.5625 -23.609375 C 16.414062 -23.804688 16.078125 -23.90625 15.546875 -23.90625 L 9.265625 -23.90625 L 9.265625 -16.640625 L 19.0625 -16.640625 L 19.0625 -12.3125 L 9.265625 -12.3125 L 9.265625 -4.375 L 16.09375 -4.375 C 16.601562 -4.375 16.925781 -4.476562 17.0625 -4.6875 C 17.207031 -4.90625 17.28125 -5.253906 17.28125 -5.734375 L 17.28125 -7.859375 L 21.609375 -7.5625 Z M 21.609375 0 "/></g></g></g><g fill="#592f22" fill-opacity="1"><g transform="translate(124.145965, 79.702203)"><g><path d="M 1.28125 -10.28125 L 1.28125 -14.1875 L 12.40625 -14.1875 L 12.40625 -10.28125 Z M 1.28125 -10.28125 "/></g></g></g><g fill="#592f22" fill-opacity="1"><g transform="translate(137.820786, 79.702203)"><g><path d="M 10.234375 -3.828125 C 13.628906 -3.828125 15.328125 -5.1875 15.328125 -7.90625 C 15.328125 -9.3125 14.578125 -10.359375 13.078125 -11.046875 C 12.285156 -11.441406 11.257812 -11.804688 10 -12.140625 C 8.738281 -12.484375 7.691406 -12.832031 6.859375 -13.1875 C 6.023438 -13.539062 5.179688 -14.03125 4.328125 -14.65625 C 2.660156 -15.894531 1.828125 -17.8125 1.828125 -20.40625 C 1.828125 -23 2.722656 -25.035156 4.515625 -26.515625 C 6.316406 -28.003906 8.664062 -28.75 11.5625 -28.75 C 14.46875 -28.75 17.164062 -28.171875 19.65625 -27.015625 L 19.65625 -20.640625 L 15.328125 -20.34375 L 15.328125 -22.8125 C 15.328125 -23.226562 15.269531 -23.535156 15.15625 -23.734375 C 14.84375 -24.273438 13.84375 -24.546875 12.15625 -24.546875 C 10.476562 -24.546875 9.234375 -24.25 8.421875 -23.65625 C 7.617188 -23.0625 7.21875 -22.140625 7.21875 -20.890625 C 7.21875 -19.984375 7.554688 -19.191406 8.234375 -18.515625 C 8.691406 -18.066406 9.363281 -17.691406 10.25 -17.390625 C 11.144531 -17.085938 12.09375 -16.78125 13.09375 -16.46875 C 14.101562 -16.164062 14.992188 -15.828125 15.765625 -15.453125 C 16.546875 -15.085938 17.363281 -14.582031 18.21875 -13.9375 C 19.945312 -12.65625 20.8125 -10.679688 20.8125 -8.015625 C 20.8125 -5.359375 19.851562 -3.265625 17.9375 -1.734375 C 16.03125 -0.210938 13.507812 0.546875 10.375 0.546875 C 7.25 0.546875 4.441406 -0.03125 1.953125 -1.1875 L 1.953125 -7.90625 L 6.28125 -8.203125 L 6.28125 -5.609375 C 6.28125 -5.179688 6.335938 -4.867188 6.453125 -4.671875 C 6.566406 -4.472656 6.910156 -4.28125 7.484375 -4.09375 C 8.066406 -3.914062 8.984375 -3.828125 10.234375 -3.828125 Z M 10.234375 -3.828125 "/></g></g></g><g fill="#592f22" fill-opacity="1"><g transform="translate(159.989279, 79.702203)"><g><path d="M 9.265625 -4.75 L 9.265625 -24.03125 L 5.953125 -24.03125 C 5.296875 -24.03125 4.96875 -23.59375 4.96875 -22.71875 L 4.96875 -20.71875 L 0.640625 -21.015625 L 0.640625 -28.234375 L 22.84375 -28.234375 L 22.84375 -21.015625 L 18.515625 -20.71875 L 18.515625 -22.71875 C 18.515625 -23.195312 18.441406 -23.535156 18.296875 -23.734375 C 18.160156 -23.929688 17.820312 -24.03125 17.28125 -24.03125 L 14.390625 -24.03125 L 14.390625 -3.734375 L 17.75 -3.609375 L 17.75 0 L 5.78125 0 L 5.78125 -3.4375 L 8.03125 -3.5625 C 8.851562 -3.644531 9.265625 -4.039062 9.265625 -4.75 Z M 9.265625 -4.75 "/></g></g></g><g fill="#592f22" fill-opacity="1"><g transform="translate(183.474297, 79.702203)"><g><path d="M 2.890625 -4.75 L 9.71875 -24.546875 L 7.046875 -24.796875 L 7.046875 -28.234375 L 16.78125 -28.234375 L 25.4375 -3.734375 L 25.484375 -3.734375 L 27.90625 -3.609375 L 27.90625 0 L 16.9375 0 L 16.9375 -3.4375 L 18.5625 -3.5625 C 19.039062 -3.625 19.363281 -3.738281 19.53125 -3.90625 C 19.707031 -4.070312 19.722656 -4.382812 19.578125 -4.84375 L 18.6875 -7.46875 L 8.75 -7.46875 L 7.46875 -3.734375 L 10.015625 -3.609375 L 10.015625 0 L 0.21875 0 L 0.21875 -3.4375 L 1.609375 -3.5625 C 2.203125 -3.625 2.628906 -4.019531 2.890625 -4.75 Z M 13.71875 -23.484375 L 9.765625 -11.375 L 17.671875 -11.375 L 13.84375 -23.484375 Z M 13.71875 -23.484375 "/></g></g></g><g fill="#592f22" fill-opacity="1"><g transform="translate(211.588365, 79.702203)"><g><path d="M 1.359375 0 L 1.359375 -3.4375 L 2.890625 -3.5625 C 3.617188 -3.625 3.984375 -4.019531 3.984375 -4.75 L 3.984375 -24.5 L 1.578125 -24.625 L 1.578125 -28.234375 L 9.21875 -28.234375 L 21.234375 -8.75 L 21.3125 -8.75 L 21.3125 -24.5 L 18.515625 -24.625 L 18.515625 -28.234375 L 28.875 -28.234375 L 28.875 -24.796875 L 27.34375 -24.671875 C 26.664062 -24.617188 26.328125 -24.179688 26.328125 -23.359375 L 26.328125 0 L 21.359375 0 L 9.09375 -19.796875 L 9 -19.796875 L 9 -3.734375 L 11.765625 -3.609375 L 11.765625 0 Z M 1.359375 0 "/></g></g></g><g fill="#592f22" fill-opacity="1"><g transform="translate(241.528567, 79.702203)"><g><path d="M 9.265625 -4.75 L 9.265625 -24.03125 L 5.953125 -24.03125 C 5.296875 -24.03125 4.96875 -23.59375 4.96875 -22.71875 L 4.96875 -20.71875 L 0.640625 -21.015625 L 0.640625 -28.234375 L 22.84375 -28.234375 L 22.84375 -21.015625 L 18.515625 -20.71875 L 18.515625 -22.71875 C 18.515625 -23.195312 18.441406 -23.535156 18.296875 -23.734375 C 18.160156 -23.929688 17.820312 -24.03125 17.28125 -24.03125 L 14.390625 -24.03125 L 14.390625 -3.734375 L 17.75 -3.609375 L 17.75 0 L 5.78125 0 L 5.78125 -3.4375 L 8.03125 -3.5625 C 8.851562 -3.644531 9.265625 -4.039062 9.265625 -4.75 Z M 9.265625 -4.75 "/></g></g></g><g fill="#592f22" fill-opacity="1"><g transform="translate(265.013585, 79.702203)"><g><path d="M 21.609375 0 L 1.4375 0 L 1.4375 -3.4375 L 2.84375 -3.5625 C 3.664062 -3.644531 4.078125 -4.039062 4.078125 -4.75 L 4.078125 -24.5 L 1.65625 -24.625 L 1.65625 -28.234375 L 21.109375 -28.234375 L 21.109375 -21.1875 L 16.78125 -20.890625 L 16.78125 -22.59375 C 16.78125 -23.070312 16.707031 -23.410156 16.5625 -23.609375 C 16.414062 -23.804688 16.078125 -23.90625 15.546875 -23.90625 L 9.265625 -23.90625 L 9.265625 -16.640625 L 19.0625 -16.640625 L 19.0625 -12.3125 L 9.265625 -12.3125 L 9.265625 -4.375 L 16.09375 -4.375 C 16.601562 -4.375 16.925781 -4.476562 17.0625 -4.6875 C 17.207031 -4.90625 17.28125 -5.253906 17.28125 -5.734375 L 17.28125 -7.859375 L 21.609375 -7.5625 Z M 21.609375 0 "/></g></g></g></svg>